# xmcd
#
# Track frame offsets:
#	150
#	15757
#	31360
#	45662
#	60964
#	72825
#	86715
#	101873
#	115950
#	128691
#	144845
#	162758
#	176836
#	191577
#	204693
#	218701
#	233226
#	248908
#
# Disc length: 3509 seconds
#
# Revision: 1
# Processed by: cddbd v1.5.2PL0 Copyright (c) Steve Scherf et al.
# Submitted via: audiograbber 1.82.02
#
DISCID=f30db312
DTITLE=Various Artist - Country Radio - February 2019
DYEAR=2019
DGENRE=Country
TTITLE0=Shane Runion - Love You That Much
TTITLE1=Garth Brooks - Stronger Than Me
TTITLE2=Luke Combs - Beautiful Crazy
TTITLE3=Ashley McBryde - Girl Goin' Nowhere
TTITLE4=Haley and Michaels - Taking Off
TTITLE5=Dylan Scott - Nothing To Do
TTITLE6=Frank Ray - Tequila Mockingbird
TTITLE7=Jade Eagleson - Got Your Name On It
TTITLE8=Toby Keith - Don't Let The Old Man In
TTITLE9=Lady Gaga and Bradley Cooper - Shallow
TTITLE10=Jackson Tillman Band - Maybe Means Goodbye
TTITLE11=William Beckmann - I Wanna See You Tonight
TTITLE12=Aaron Watson - Kiss That Girl Goodbye
TTITLE13=Chance McKinney - She Wrecked This Town (Clean)
TTITLE14=Brian James Schram - Ya Got Me Rellin'
TTITLE15=Eric Church - Some Of It
TTITLE16=Matt Stell - Prayed For You (Clean)
TTITLE17=Kane Brown - Good As You
EXTD=
EXTT0=
EXTT1=
EXTT2=
EXTT3=
EXTT4=
EXTT5=
EXTT6=
EXTT7=
EXTT8=
EXTT9=
EXTT10=
EXTT11=
EXTT12=
EXTT13=
EXTT14=
EXTT15=
EXTT16=
EXTT17=
PLAYORDER=
